<?xml version="1.0" encoding="UTF-8"?>
<svg id="Layer_1" data-name="Layer 1" xmlns="http://www.w3.org/2000/svg" xmlns:xlink="http://www.w3.org/1999/xlink" viewBox="0 0 645.23 292.84">
  <defs>
    <style>
      .cls-1 {
        fill: none;
      }

      .cls-2 {
        fill: #3aaacb;
      }

      .cls-3 {
        fill: #fff;
      }

      .cls-4 {
        fill: #bcbcbc;
      }

      .cls-5 {
        fill: url(#Degradado_sin_nombre);
      }

      .cls-6 {
        fill: #4db751;
      }
    </style>
    <linearGradient id="Degradado_sin_nombre" data-name="Degradado sin nombre" x1="115.98" y1="230.78" x2="46.11" y2="79.1" gradientTransform="translate(0 294.02) scale(1 -1)" gradientUnits="userSpaceOnUse">
      <stop offset="0" stop-color="#4db751"/>
      <stop offset="1" stop-color="#00b4d4"/>
    </linearGradient>
  </defs>
  <g>
    <path class="cls-3" d="M0,171.69c0-3.65.68-7.24,2.04-10.77,1.36-3.53,3.35-6.7,5.96-9.51,2.61-2.81,5.78-5.08,9.5-6.82s7.97-2.61,12.75-2.61c5.72,0,10.68,1.19,14.88,3.58,4.2,2.38,7.32,5.54,9.38,9.47l-12.42,8.92c-.56-1.46-1.29-2.66-2.21-3.62s-1.93-1.71-3.04-2.27-2.27-.95-3.46-1.18c-1.2-.22-2.35-.34-3.46-.34-2.33,0-4.35.46-6.04,1.39-1.69.92-3.08,2.13-4.17,3.62-1.08,1.49-1.89,3.17-2.42,5.05s-.79,3.75-.79,5.6c0,2.08.3,4.07.92,5.98s1.5,3.59,2.67,5.05,2.6,2.62,4.29,3.49,3.6,1.3,5.71,1.3c1.11,0,2.25-.13,3.42-.38s2.29-.67,3.37-1.26c1.09-.59,2.06-1.35,2.92-2.27s1.54-2.06,2.04-3.41l13.25,8c-.89,2.19-2.24,4.15-4.04,5.89-1.81,1.74-3.86,3.2-6.17,4.38s-4.78,2.08-7.42,2.69c-2.64.62-5.21.93-7.71.93-4.39,0-8.41-.88-12.04-2.65-3.64-1.77-6.78-4.11-9.42-7.03s-4.68-6.23-6.13-9.93c-1.44-3.7-2.17-7.46-2.17-11.28h0Z"/>
    <path class="cls-3" d="M191.64,172.7v29.37h-16.25v-59.76h12.67l23.76,30.38v-30.38h16.25v59.76h-12.92l-23.51-29.37Z"/>
    <path class="cls-3" d="M304.25,197.11c-4.22,3.59-9.09,5.39-14.59,5.39-3.83,0-7.5-.69-11-2.06s-6.56-3.38-9.17-6.02c-2.61-2.64-4.7-5.86-6.25-9.68s-2.33-8.16-2.33-13.05c0-4.21.78-8.12,2.33-11.74,1.56-3.62,3.7-6.76,6.42-9.43s5.93-4.77,9.63-6.31c3.69-1.54,7.68-2.31,11.96-2.31,2.67,0,5.22.29,7.67.88,2.44.59,4.71,1.46,6.79,2.61s3.96,2.53,5.63,4.12c1.67,1.6,3.03,3.41,4.08,5.43l-12.09,9.34c-1.17-2.36-2.92-4.25-5.25-5.68s-4.81-2.15-7.42-2.15c-1.95,0-3.72.39-5.34,1.18-1.61.79-3,1.88-4.17,3.28s-2.08,3.07-2.75,5.01c-.67,1.94-1,4.05-1,6.36s.33,4.49,1,6.4c.67,1.91,1.6,3.55,2.79,4.92,1.19,1.38,2.63,2.44,4.29,3.2s3.53,1.14,5.58,1.14c4.72,0,8.89-1.96,12.5-5.89h-10.25v-11.78h24.34v31.81h-13.42v-4.97h.02Z"/>
    <path class="cls-3" d="M351.51,202.07v-59.76h27.17c2.89,0,5.56.6,8,1.81,2.44,1.21,4.54,2.78,6.29,4.71,1.75,1.94,3.12,4.15,4.13,6.65,1,2.5,1.5,5.01,1.5,7.53,0,3.48-.75,6.72-2.25,9.72s-3.58,5.46-6.25,7.36l12.5,21.97h-18.34l-10.42-18.35h-6.08v18.35h-16.25ZM367.76,169.42h10.25c1,0,1.93-.56,2.79-1.68.86-1.12,1.29-2.69,1.29-4.71s-.5-3.66-1.5-4.76c-1-1.09-2-1.64-3-1.64h-9.84v12.79h0Z"/>
    <path class="cls-3" d="M475.78,187.77v14.31h-42.18v-59.76h41.43v14.31h-25.17v8.42h21.51v13.3h-21.51v9.43h25.92Z"/>
    <path class="cls-3" d="M545.04,161.84c-1.67-1.01-3.39-1.91-5.17-2.69-1.5-.67-3.18-1.31-5.04-1.9s-3.68-.88-5.46-.88c-1.45,0-2.6.22-3.46.67s-1.29,1.21-1.29,2.27c0,.79.25,1.43.75,1.94s1.22.97,2.17,1.39c.94.42,2.1.83,3.46,1.22,1.36.39,2.9.87,4.63,1.43,2.72.84,5.18,1.77,7.38,2.78,2.19,1.01,4.07,2.2,5.63,3.58s2.75,3.05,3.58,5.01c.83,1.97,1.25,4.35,1.25,7.15,0,3.59-.65,6.61-1.96,9.05s-3.03,4.39-5.17,5.85c-2.14,1.46-4.56,2.51-7.25,3.16-2.7.64-5.4.97-8.13.97-2.17,0-4.39-.17-6.67-.51-2.28-.34-4.54-.81-6.79-1.43s-4.42-1.35-6.5-2.19-4.02-1.79-5.79-2.86l7-14.39c1.94,1.23,3.97,2.33,6.09,3.28,1.78.84,3.79,1.6,6.04,2.27s4.54,1.01,6.88,1.01c1.78,0,3.01-.24,3.71-.72.69-.48,1.04-1.11,1.04-1.89,0-.84-.35-1.56-1.04-2.15-.7-.59-1.65-1.11-2.88-1.56-1.22-.45-2.62-.9-4.21-1.35s-3.27-.98-5.04-1.6c-2.61-.9-4.86-1.87-6.75-2.9-1.89-1.04-3.45-2.22-4.67-3.54-1.22-1.32-2.13-2.82-2.71-4.5s-.88-3.62-.88-5.81c0-3.31.6-6.23,1.79-8.75,1.19-2.53,2.82-4.63,4.88-6.31s4.4-2.96,7.04-3.83,5.43-1.31,8.38-1.31c2.17,0,4.28.21,6.33.63s4.04.95,5.96,1.6c1.92.65,3.71,1.35,5.38,2.1s3.17,1.47,4.5,2.15l-7,13.55h-.01Z"/>
    <path class="cls-3" d="M613.14,202.58c-4.5,0-8.59-.87-12.25-2.61-3.67-1.74-6.81-4.02-9.42-6.86-2.61-2.83-4.64-6.07-6.09-9.72-1.44-3.65-2.17-7.41-2.17-11.28s.75-7.71,2.25-11.36,3.6-6.86,6.29-9.64,5.89-4.99,9.59-6.65c3.7-1.65,7.74-2.48,12.13-2.48s8.59.87,12.25,2.61c3.67,1.74,6.81,4.04,9.42,6.9s4.63,6.12,6.04,9.76c1.42,3.65,2.12,7.38,2.12,11.19s-.75,7.7-2.25,11.32-3.58,6.82-6.25,9.59c-2.67,2.78-5.85,5.01-9.55,6.69-3.7,1.68-7.74,2.53-12.13,2.53h.02ZM599.72,172.28c0,2.02.28,3.97.83,5.85s1.39,3.55,2.5,5.01c1.11,1.46,2.51,2.64,4.21,3.54,1.69.9,3.71,1.35,6.04,1.35s4.36-.46,6.08-1.39c1.72-.93,3.13-2.13,4.21-3.62,1.08-1.49,1.89-3.18,2.42-5.09.53-1.91.79-3.84.79-5.81s-.28-3.97-.83-5.85c-.56-1.88-1.41-3.54-2.54-4.97-1.14-1.43-2.56-2.58-4.25-3.45-1.7-.87-3.68-1.31-5.96-1.31s-4.35.45-6.04,1.35c-1.7.9-3.1,2.09-4.21,3.58s-1.93,3.17-2.46,5.05-.79,3.8-.79,5.77h0Z"/>
  </g>
  <g>
    <path class="cls-4" d="M1.95,215.03h4.89l10.62,17.58,10.62-17.58h4.76v29.09h-3.84v-23.57l-10.5,17.46h-2.19l-10.5-17.46v23.57H1.95v-29.09h0Z"/>
    <path class="cls-4" d="M52.29,232.99v-17.96h3.84v17.88c0,4.55,3.42,8.01,7.97,8.01s8.01-3.46,8.01-8.01v-17.88h3.84v17.96c0,6.62-5.1,11.64-11.85,11.64s-11.81-5.02-11.81-11.64h0Z"/>
    <path class="cls-4" d="M95.33,215.03h3.88v25.47h13.7v3.63h-17.58v-29.09h0Z"/>
    <path class="cls-4" d="M132.81,218.65h-8.77v-3.63h21.42v3.63h-8.77v25.47h-3.88v-25.47h0Z"/>
    <path class="cls-4" d="M163.29,215.03h3.88v29.09h-3.88v-29.09Z"/>
    <path class="cls-4" d="M187.2,215.03h11.22c8.43,0,14.76,6.24,14.76,14.55s-6.32,14.55-14.76,14.55h-11.22v-29.09h0ZM191.08,218.65v21.84h7.29c6.16,0,10.84-4.68,10.84-10.92s-4.68-10.92-10.84-10.92h-7.29Z"/>
    <path class="cls-4" d="M231.63,215.03h3.88v29.09h-3.88v-29.09Z"/>
    <path class="cls-4" d="M253.89,235.9h3.92c0,2.99,2.87,5.27,6.53,5.27,3.46,0,6.24-1.94,6.24-4.81,0-6.75-16.19-3.63-16.19-13.53,0-5.06,4.38-8.31,9.78-8.31s9.83,3.58,9.83,8.35h-3.92c0-2.78-2.57-4.89-5.99-4.89-3.12,0-5.73,1.77-5.73,4.55,0,6.7,16.19,3.33,16.19,13.41,0,5.27-4.55,8.69-10.25,8.69s-10.42-3.79-10.42-8.73h.01Z"/>
    <path class="cls-4" d="M291.42,229.57c0-8.56,6.58-15.05,15.22-15.05,7.08,0,12.82,4.43,14.38,10.67h-4.09c-1.43-4.13-5.44-6.96-10.29-6.96-6.41,0-11.26,4.89-11.26,11.34s4.85,11.34,11.26,11.34c4.85,0,8.85-2.83,10.29-6.96h4.09c-1.56,6.24-7.29,10.67-14.38,10.67-8.65,0-15.22-6.49-15.22-15.05h0Z"/>
    <path class="cls-4" d="M339.31,215.03h3.88v29.09h-3.88v-29.09Z"/>
    <path class="cls-4" d="M363.21,215.03h12.65c5.31,0,9.32,3.92,9.32,9.15s-4.01,9.11-9.32,9.11h-8.77v10.84h-3.88v-29.09h0ZM367.09,218.65v11h8.69c3.08,0,5.44-2.32,5.44-5.48s-2.36-5.52-5.44-5.52h-8.69Z"/>
    <path class="cls-4" d="M403.1,215.03h3.88v25.47h13.7v3.63h-17.58v-29.09h0Z"/>
    <path class="cls-4" d="M438.55,215.03h3.88v29.09h-3.88v-29.09Z"/>
    <path class="cls-4" d="M462.46,215.03h4.01l16.44,22.69v-22.69h3.84v29.09h-3.96l-16.44-22.68v22.68h-3.88v-29.09h-.01Z"/>
    <path class="cls-4" d="M515.7,215.03h4.6l11.85,29.09h-4.26l-2.83-7.04h-14.25l-2.83,7.04h-4.13l11.85-29.09h0ZM523.63,233.5l-5.69-14.25-5.69,14.25h11.38Z"/>
    <path class="cls-4" d="M549.22,215.03h12.44c5.19,0,9.11,3.8,9.11,8.85,0,4.68-3.42,8.22-8.1,8.64l3.92,5.61c1.14,1.6,2.53,2.36,4.13,2.36h.97v3.63h-1.39c-3.16,0-5.61-1.35-7.3-4.17l-4.89-7.38h-5.02v11.55h-3.88v-29.09h.01ZM553.1,218.65v10.54h8.52c2.95,0,5.19-2.24,5.19-5.27s-2.24-5.27-5.19-5.27h-8.52Z"/>
    <path class="cls-4" d="M589.27,215.03h3.88v29.09h-3.88v-29.09Z"/>
    <path class="cls-4" d="M611.66,229.57c0-8.56,6.58-15.05,15.22-15.05s15.22,6.49,15.22,15.05-6.53,15.05-15.22,15.05-15.22-6.49-15.22-15.05ZM638.14,229.57c0-6.45-4.85-11.34-11.26-11.34s-11.26,4.89-11.26,11.34,4.85,11.34,11.26,11.34,11.26-4.89,11.26-11.34Z"/>
  </g>
  <g>
    <path class="cls-6" d="M302.51,69.3v12.09c0,3.02-.01,5.79-.03,8.32v3.77h-6.27v-3.77c.02-2.53.03-5.3.03-8.32v-12.09s6.27,0,6.27,0Z"/>
    <path class="cls-6" d="M320.81,69.27l.13.25c.1.17.23.39.38.66.35.65.79,1.45,1.32,2.37l3.98,7.28.22.35c-.02-1.16-.04-2.36-.05-3.61-.01-1.24-.02-2.41-.02-3.48-.02-1.08-.03-1.99-.03-2.75v-1.01l6.27-.06v1.01c0,.76,0,1.68.03,2.75.02,2.51.04,5.27.06,8.29.04,3.02.07,5.78.09,8.29.02,1.08.03,1.99.03,2.75v1.01l-6.27.06v-.03s-.04-.02-.06-.05c-.02-.03-.04-.08-.06-.14-.08-.19-.21-.41-.38-.67-.36-.67-.8-1.48-1.32-2.4l-3.98-7.25-.31-.57c0,2.57.01,5.02.03,7.34v3.77l-6.27.03v-3.77c-.02-2.53-.03-5.3-.03-8.32-.02-3.02-.03-5.79-.03-8.32,0-1.05-.01-1.96-.03-2.72v-1.04l6.27-.03v.03l.03-.03h0Z"/>
    <path class="cls-6" d="M351.51,69.27l.13.25c.1.17.23.39.38.66.35.65.79,1.45,1.32,2.37l3.98,7.28.22.35c-.02-1.16-.04-2.36-.05-3.61-.01-1.24-.02-2.41-.02-3.48-.02-1.08-.03-1.99-.03-2.75v-1.01l6.27-.06v1.01c0,.76,0,1.68.03,2.75.02,2.51.04,5.27.06,8.29.04,3.02.07,5.78.09,8.29.02,1.08.03,1.99.03,2.75v1.01l-6.27.06v-.03s-.04-.02-.06-.05c-.02-.03-.04-.08-.06-.14-.08-.19-.21-.41-.38-.67-.36-.67-.8-1.48-1.32-2.4l-3.98-7.25-.31-.57c0,2.57.01,5.02.03,7.34v3.77l-6.27.03v-3.77c-.02-2.53-.03-5.3-.03-8.32-.02-3.02-.03-5.79-.03-8.32,0-1.05-.01-1.96-.03-2.72v-1.04l6.27-.03v.03l.03-.03h0Z"/>
    <path class="cls-6" d="M388.49,69.27c3.53,0,6.55,1.21,9.06,3.62,2.51,2.42,3.76,5.34,3.76,8.78s-1.25,6.34-3.76,8.76c-2.51,2.43-5.53,3.64-9.06,3.64s-6.55-1.21-9.07-3.64-3.78-5.35-3.78-8.76,1.25-6.36,3.76-8.78c2.51-2.41,5.54-3.62,9.09-3.62ZM392.59,77.69c-1.13-1.1-2.5-1.65-4.11-1.65s-2.98.55-4.12,1.65-1.71,2.43-1.71,3.99.57,2.89,1.71,3.99c1.14,1.1,2.51,1.65,4.12,1.65s2.95-.55,4.09-1.65c1.14-1.1,1.71-2.43,1.71-3.99s-.56-2.89-1.69-3.99Z"/>
    <path class="cls-6" d="M417.38,93.38l-8.3-24.02,6.77-.06,5.67,14.81,4.82-14.55h7.33l-8.43,23.86h-.16l-7.71-.03h0Z"/>
    <path class="cls-6" d="M454.85,69.33c.46,1.35.86,2.5,1.19,3.45.77,2.28,1.64,4.78,2.6,7.5.94,2.74,1.8,5.24,2.57,7.5.33.97.63,1.79.88,2.47l1.16,3.2-6.89.03c-.06-.11-.12-.22-.16-.35-.06-.19-.14-.42-.22-.7l-.28-.82-3.76-.03c-1.44,0-2.76,0-3.95-.03h-.69l-.28,1.01c-.08.3-.16.54-.22.73l-.06.25-6.8-.16c.4-1.14.62-1.78.66-1.93.04-.19.1-.43.19-.73.21-.69.46-1.54.75-2.53l2.19-7.72c.82-2.81,1.56-5.38,2.23-7.72l1-3.42h.16v-.03l7.74.03h-.01ZM453.51,85.28l-1-2.82-1.41-4.11-1.13,3.95-.85,2.91c.56.02,1.51.03,2.85.03.25,0,.54,0,.88.01.33.01.55.02.66.02h0Z"/>
    <path class="cls-6" d="M476.25,69.4c.35-.02.6-.04.72-.06,2.15-.1,3.86-.12,5.14-.03,2.76.13,4.98.64,6.67,1.55,2.67,1.43,4.03,3.66,4.07,6.68.04,2.83-.99,5.04-3.1,6.64-.48.38-1.13.76-1.94,1.14l5.77,8.1-8.15-.13-4.17-6.64h-1.5v6.8l-6.08.13-.38-24.11c1.29-.04,2.26-.06,2.88-.06h.07ZM479.73,75.16v5.57c1.42,0,2.56-.06,3.42-.19,1.4-.23,2.42-.59,3.07-1.08.54-.4.8-1.02.78-1.87,0-.65-.31-1.15-.94-1.49-.86-.48-2.28-.79-4.26-.92-.44-.02-1.13-.03-2.07-.03h0Z"/>
    <path class="cls-6" d="M528.65,69.43c1.88-.1,3.42-.12,4.61-.03,2.96.17,5.36.77,7.17,1.8,2.76,1.6,4.15,4.03,4.17,7.28.06,3.04-1,5.46-3.2,7.28-1.57,1.27-3.6,2.1-6.11,2.5-.71.13-1.79.23-3.23.32h-1.79c0,.55,0,1.37-.01,2.45-.01,1.09-.02,1.89-.02,2.42l-6.3.06-.16-24.05,4.86-.03h.01ZM530.34,82.66h1.53c.67-.02,1.49-.09,2.48-.22,1.48-.25,2.6-.68,3.35-1.27.35-.27.61-.59.75-.95.21-.51.3-1.06.28-1.68,0-.97-.41-1.7-1.22-2.18-1-.57-2.54-.92-4.61-1.05-.69-.06-1.53-.07-2.51-.03-.04,3.29-.06,5.75-.06,7.37h0Z"/>
    <path class="cls-6" d="M569.54,69.33c.46,1.35.86,2.5,1.19,3.45.77,2.28,1.64,4.78,2.6,7.5.94,2.74,1.8,5.24,2.57,7.5.33.97.63,1.79.88,2.47l1.16,3.2-6.89.03c-.06-.11-.12-.22-.16-.35-.06-.19-.14-.42-.22-.7l-.28-.82-3.76-.03c-1.44,0-2.76,0-3.95-.03h-.69l-.28,1.01c-.08.3-.16.54-.22.73l-.06.25-6.8-.16c.4-1.14.62-1.78.66-1.93.04-.19.1-.43.19-.73.21-.69.46-1.54.75-2.53l2.19-7.72c.82-2.81,1.56-5.38,2.23-7.72l1-3.42h.16v-.03l7.74.03h0ZM568.19,85.28l-1-2.82-1.41-4.11-1.13,3.95-.85,2.91c.56.02,1.51.03,2.85.03.25,0,.54,0,.88.01.33.01.55.02.66.02h0Z"/>
    <path class="cls-6" d="M590.94,69.4c.35-.02.6-.04.72-.06,2.15-.1,3.86-.12,5.14-.03,2.76.13,4.98.64,6.67,1.55,2.67,1.43,4.03,3.66,4.07,6.68.04,2.83-.99,5.04-3.1,6.64-.48.38-1.13.76-1.94,1.14l5.77,8.1-8.15-.13-4.17-6.64h-1.5v6.8l-6.08.13-.38-24.11c1.29-.04,2.26-.06,2.88-.06h.07ZM594.41,75.16v5.57c1.42,0,2.56-.06,3.42-.19,1.4-.23,2.42-.59,3.07-1.08.54-.4.8-1.02.78-1.87,0-.65-.31-1.15-.94-1.49-.86-.48-2.28-.79-4.26-.92-.44-.02-1.13-.03-2.07-.03h0Z"/>
    <path class="cls-6" d="M633.17,69.33c.46,1.35.86,2.5,1.19,3.45.77,2.28,1.64,4.78,2.6,7.5.94,2.74,1.8,5.24,2.57,7.5.33.97.63,1.79.88,2.47l1.16,3.2-6.89.03c-.06-.11-.12-.22-.16-.35-.06-.19-.14-.42-.22-.7l-.28-.82-3.76-.03c-1.44,0-2.76,0-3.95-.03h-.69l-.28,1.01c-.08.3-.16.54-.22.73l-.06.25-6.8-.16c.4-1.14.62-1.78.66-1.93.04-.19.1-.43.19-.73.21-.69.46-1.54.75-2.53l2.19-7.72c.82-2.81,1.56-5.38,2.23-7.72l1-3.42h.16v-.03l7.74.03h0ZM631.83,85.28l-1-2.82-1.41-4.11-1.13,3.95-.85,2.91c.56.02,1.51.03,2.85.03.25,0,.54,0,.88.01.33.01.55.02.66.02h0Z"/>
    <path class="cls-2" d="M294.49,107.33h8.68c2.17-.02,4.17-.03,5.99-.03h2.7l.03,6.39h-5.8v17.75h-6.3v-.89c0-.67-.01-1.48-.03-2.4v-14.46h-2.54c-.77,0-1.43.01-1.97.03h-.75v-6.39h-.01Z"/>
    <path class="cls-2" d="M327.14,107.37c.35-.02.6-.04.72-.06,2.15-.1,3.86-.12,5.14-.03,2.76.13,4.98.64,6.67,1.55,2.67,1.43,4.03,3.66,4.07,6.68.04,2.83-.99,5.04-3.1,6.64-.48.38-1.13.76-1.94,1.14l5.77,8.1-8.15-.13-4.17-6.64h-1.5v6.8l-6.08.13-.38-24.11c1.29-.04,2.26-.06,2.88-.06h.07ZM330.61,113.13v5.57c1.42,0,2.56-.06,3.42-.19,1.4-.23,2.42-.59,3.07-1.08.54-.4.8-1.02.78-1.87,0-.65-.31-1.15-.94-1.49-.86-.48-2.28-.79-4.26-.92-.44-.02-1.13-.03-2.07-.03h0Z"/>
    <path class="cls-2" d="M370.72,107.3c.46,1.35.86,2.5,1.19,3.45.77,2.28,1.64,4.78,2.6,7.5.94,2.74,1.8,5.24,2.57,7.5.33.97.63,1.79.88,2.47l1.16,3.2-6.89.03c-.06-.11-.12-.22-.16-.35-.06-.19-.14-.42-.22-.7l-.28-.82-3.76-.03c-1.44,0-2.76,0-3.95-.03h-.69l-.28,1.01c-.08.3-.16.54-.22.73l-.06.25-6.8-.16c.4-1.14.62-1.78.66-1.93.04-.19.1-.43.19-.73.21-.69.46-1.54.75-2.53l2.19-7.72c.82-2.81,1.56-5.38,2.23-7.72l1-3.42h.16v-.03l7.74.03h-.01ZM369.38,123.25l-1-2.82-1.41-4.11-1.13,3.95-.85,2.91c.56.02,1.51.03,2.85.03.25,0,.54,0,.88.01.33.01.55.02.66.02h0Z"/>
    <path class="cls-2" d="M397.83,107.24l.13.25c.1.17.23.39.38.66.35.65.79,1.45,1.32,2.37l3.98,7.28.22.35c-.02-1.16-.04-2.36-.05-3.61-.01-1.24-.02-2.41-.02-3.48-.02-1.08-.03-1.99-.03-2.75v-1.01l6.27-.06v1.01c0,.76,0,1.68.03,2.75.02,2.51.04,5.27.06,8.29.04,3.02.07,5.78.09,8.29.02,1.08.03,1.99.03,2.75v1.01l-6.27.06v-.03s-.04-.02-.06-.05-.04-.08-.06-.14c-.08-.19-.21-.41-.38-.67-.36-.67-.8-1.48-1.32-2.4l-3.98-7.25-.31-.57c0,2.57.01,5.02.03,7.34v3.77l-6.27.03v-3.77c-.02-2.53-.03-5.3-.03-8.32-.02-3.02-.03-5.79-.03-8.32,0-1.05-.01-1.96-.03-2.72v-1.04l6.27-.03v.03l.03-.03h0Z"/>
    <path class="cls-2" d="M439.47,113.66c-5.49-.55-8.57-.51-9.21.13-.38.4-.47.85-.28,1.36s.5.81.94.92c.23.06.75.17,1.57.32s1.49.3,2.04.44c.54.15,1.18.35,1.91.62.73.26,1.37.61,1.91,1.03s.98.91,1.32,1.45c.56.93.92,1.86,1.07,2.8.14.94.05,2.25-.28,3.94-.15.63-.37,1.2-.67,1.71-.3.51-.64.92-1,1.25s-.78.61-1.25.84-.91.41-1.32.52c-.41.12-.85.21-1.32.28-.47.07-.85.11-1.14.11h-1.38c-.63.02-2.1.03-4.4.02-2.31,0-3.64-.03-4-.05l.09-6.2c5.26.23,8.25.27,8.96.13.59-.11.95-.29,1.08-.55s.15-.62.05-1.06c-.1-.48-.41-.86-.91-1.14-.17-.13-.47-.2-.91-.22-.17-.02-.51-.03-1.03-.03-.12,0-.33,0-.61-.02-.28,0-.5-.03-.64-.05-.63-.04-1.15-.13-1.57-.25-1.42-.36-2.57-1.1-3.45-2.21-1.13-1.39-1.76-2.92-1.88-4.59-.13-1.9.44-3.64,1.69-5.22.86-1.08,2.08-1.87,3.67-2.37.27-.09.57-.14.91-.17s.62-.05.85-.06c.23-.01.56-.02,1-.02h.97c2.74,0,5.14.06,7.21.19l.03,6.17-.02-.02Z"/>
    <path class="cls-2" d="M456.95,107.27h11.47l-.03,4.46c-.9,0-2.24,0-4.01.01-1.78.01-3.11.03-4.01.05-.02,1.43-.03,2.99-.03,4.65h5.11c.48,0,.89.01,1.22.03h.44v4.65h-.47c-.33-.02-.74-.03-1.22-.03h-5.11c-.02,1.1-.04,2.27-.05,3.53-.01,1.25-.02,2.27-.02,3.05-.02,1.08-.03,1.98-.03,2.72v1.04l-6.52-.06v-1.01c0-.76,0-1.67.03-2.72.02-2.51.04-5.27.06-8.29.02-3.02.04-5.77.06-8.26.02-1.08.03-1.99.03-2.75l.03-1.08c1.34,0,2.35.01,3.04.03v-.03h0Z"/>
    <path class="cls-2" d="M494.34,107.24c3.53,0,6.55,1.21,9.06,3.62,2.51,2.42,3.76,5.34,3.76,8.78s-1.25,6.34-3.76,8.76c-2.51,2.43-5.53,3.64-9.06,3.64s-6.55-1.21-9.07-3.64c-2.52-2.43-3.78-5.35-3.78-8.76s1.25-6.36,3.76-8.78c2.51-2.41,5.54-3.62,9.09-3.62ZM498.44,115.66c-1.13-1.1-2.5-1.65-4.11-1.65s-2.98.55-4.12,1.65-1.71,2.43-1.71,3.99.57,2.89,1.71,3.99c1.14,1.1,2.51,1.65,4.12,1.65s2.95-.55,4.09-1.65c1.14-1.1,1.71-2.43,1.71-3.99s-.56-2.89-1.69-3.99Z"/>
    <path class="cls-2" d="M522.25,107.37c.35-.02.6-.04.72-.06,2.15-.1,3.86-.12,5.14-.03,2.76.13,4.98.64,6.67,1.55,2.67,1.43,4.03,3.66,4.07,6.68.04,2.83-.99,5.04-3.1,6.64-.48.38-1.13.76-1.94,1.14l5.77,8.1-8.15-.13-4.17-6.64h-1.5v6.8l-6.08.13-.38-24.11c1.29-.04,2.26-.06,2.88-.06h.07ZM525.73,113.13v5.57c1.42,0,2.56-.06,3.42-.19,1.4-.23,2.42-.59,3.07-1.08.54-.4.8-1.02.78-1.87,0-.65-.31-1.15-.94-1.49-.86-.48-2.28-.79-4.26-.92-.44-.02-1.13-.03-2.07-.03h0Z"/>
    <path class="cls-2" d="M557.69,107.27s.05.09.09.22c.08.15.19.35.31.6l1.06,2.15c.98,1.98,2.06,4.17,3.23,6.55l1.38,2.85,1.35-2.82,3.17-6.58c.4-.84.74-1.56,1.03-2.15.12-.25.22-.46.28-.63l.13-.19v-.03l6.27-.03v3.77c.02,2.53.04,5.31.06,8.32s.03,5.79.03,8.32c.02,1.06.03,1.96.03,2.72v1.04l-6.27.03v-1.04c0-.76,0-1.67-.03-2.72,0-2.42,0-4.45-.03-6.07l-2.19,4.62c-.4.84-.74,1.56-1.03,2.15-.12.25-.22.45-.28.6l-.12.22-4.67.03s-.04-.06-.06-.13l-.06-.13c-.08-.17-.18-.37-.28-.6-.29-.61-.65-1.34-1.06-2.18l-2.32-4.65c.02,1.69.03,3.75.03,6.17.02,1.06.03,1.96.03,2.72v1.04l-6.27.03v-1.04c0-.76-.01-1.67-.03-2.72l-.03-8.32-.03-8.29c-.02-1.08-.03-1.99-.03-2.75v-1.04l6.27-.03v.03l.06-.03h-.02Z"/>
    <path class="cls-2" d="M602.37,107.3c.46,1.35.86,2.5,1.19,3.45.77,2.28,1.64,4.78,2.6,7.5.94,2.74,1.8,5.24,2.57,7.5.33.97.63,1.79.88,2.47l1.16,3.2-6.89.03c-.06-.11-.12-.22-.16-.35-.06-.19-.14-.42-.22-.7l-.28-.82-3.76-.03c-1.44,0-2.76,0-3.95-.03h-.69l-.28,1.01c-.08.3-.16.54-.22.73l-.06.25-6.8-.16c.4-1.14.62-1.78.66-1.93.04-.19.1-.43.19-.73.21-.69.46-1.54.75-2.53l2.19-7.72c.82-2.81,1.56-5.38,2.23-7.72l1-3.42h.16v-.03l7.74.03h0ZM601.03,123.25l-1-2.82-1.41-4.11-1.13,3.95-.85,2.91c.56.02,1.51.03,2.85.03.25,0,.54,0,.88.01.33.01.55.02.66.02h0Z"/>
    <path class="cls-2" d="M625.12,107.37c.35-.02.6-.04.72-.06,2.15-.1,3.86-.12,5.14-.03,2.76.13,4.98.64,6.67,1.55,2.67,1.43,4.03,3.66,4.07,6.68.04,2.83-.99,5.04-3.1,6.64-.48.38-1.13.76-1.94,1.14l5.77,8.1-8.15-.13-4.17-6.64h-1.5v6.8l-6.08.13-.38-24.11c1.29-.04,2.26-.06,2.88-.06h.07ZM628.6,113.13v5.57c1.42,0,2.56-.06,3.42-.19,1.4-.23,2.42-.59,3.07-1.08.54-.4.8-1.02.78-1.87,0-.65-.31-1.15-.94-1.49-.86-.48-2.28-.79-4.26-.92-.44-.02-1.13-.03-2.07-.03h0Z"/>
  </g>
  <g>
    <path class="cls-1" d="M136.37,78.74c-7.9,0-15.52,2.69-21.63,7.64h-13.66l8.46,3.17c.64.24,1.31.36,2,.36,1.06,0,2.17-.29,3.2-.85.55-.29,1.05-.62,1.46-.97,5.86-5.12,13.41-7.94,21.24-7.94,4.95,0,9.75,1.11,14.26,3.3,14.25,6.97,21.4,23.62,16.63,38.74-.32,1.02-.71,2.07-1.23,3.28-4.59,10.54-14.54,17.92-25.98,19.23-2.31.26-4.44,1.29-6.05,2.84.43.02.85.03,1.28.03,18.97,0,34.41-15.45,34.41-34.42s-15.43-34.41-34.41-34.41h.02ZM136.66,49.18c-3.14,0-6.26.24-9.31.68l1.99-13.08h56.75c2.32,0,4.22-1.9,4.22-4.22V4.23c0-2.32-1.9-4.21-4.22-4.21h-55.72c-.11-.02-.23-.02-.33-.02h-28.66c-2.08,0-3.86,1.52-4.16,3.57l-8.48,55.63-.84,5.53-1.61,10.6-.26,1.64c-.03.21-.05.43-.05.64v12.97c0,2.32,1.9,4.22,4.22,4.22h26.08c1.06,0,2.07-.41,2.84-1.11,2.13-1.87,4.53-3.39,7.11-4.47.05-.03.09-.05.14-.06,3.13-1.32,6.53-2.01,10-2.01,14.32,0,25.98,11.65,25.98,25.98,0,8.49-4.09,16.04-10.39,20.78-.02.02-.03.03-.05.03-4.31,3.24-9.66,5.15-15.43,5.18h-.11c-6.53,0-12.65-2.4-17.36-6.65-1.82-1.61-3.42-3.52-4.75-5.68-.76-1.23-2.11-1.99-3.57-1.99h-2.86l-4.54-.02-22.62-.06h-.02c-1.32,0-2.57.61-3.36,1.67-.81,1.05-1.06,2.42-.7,3.69,1.88,6.61,4.77,12.73,8.49,18.21.79,1.17,1.61,2.29,2.49,3.4,1.32,1.72,2.75,3.37,4.25,4.94,2,2.08,4.13,4.01,6.4,5.79,1.25-.88,2.61-1.59,4.07-2.11,1.82-.67,3.8-1.02,5.85-1.02h.23c-3.16-1.97-6.12-4.28-8.83-6.88h-.02c-1.67-1.61-3.25-3.33-4.72-5.13-.9-1.11-1.75-2.26-2.57-3.46-2.26-3.28-4.18-6.85-5.7-10.65l20.86.06h1.02c1.29,1.81,2.73,3.46,4.31,4.92,1.66,1.59,3.43,2.98,5.35,4.16,2.96,1.87,6.2,3.27,9.62,4.15,2.39.61,4.86.97,7.4,1.06.43.02.85.03,1.28.03,18.97,0,34.41-15.45,34.41-34.42s-15.43-34.41-34.41-34.41c-7.9,0-15.52,2.69-21.63,7.64h-20.33v-8.45l.33-2.17c.94-.03,1.87-.38,2.6-1.02.11-.09.21-.2.32-.3,10.24-10.85,24.09-16.82,38.99-16.82,29.8,0,54.06,24.64,54.06,54.93,0,28.04-20.77,51.22-47.47,54.53-1.41.18-2.84.3-4.28.35-.77.05-1.53.06-2.31.06-1.58,0-3.14-.08-4.68-.23-3.74-.32-7.38-1.05-10.91-2.14,1.37,1.53,2.46,3.31,3.2,5.26.55,1.4.93,2.9,1.08,4.47v.02c2.77.53,5.59.87,8.46.99.94.06,1.88.08,2.84.08,1.23,0,2.46-.03,3.68-.11,1.43-.09,2.83-.21,4.22-.41,30.75-3.93,54.59-30.62,54.59-62.86,0-34.94-28.04-63.37-62.49-63.37h.02ZM129.67,8.44c.12,0,.24.02.35.02h51.84v19.9h-56.16c-2.08,0-3.84,1.52-4.16,3.57l-2.23,14.69c-8.58,1.09-16.36,5.35-21.9,11.71l7.6-49.89h24.67,0Z"/>
    <path class="cls-3" d="M194.93,112.56c0,30.09-22.13,54.94-50.77,58.68-1.4.18-2.81.32-4.22.39-1.09.06-2.19.09-3.28.09s-2.26-.03-3.37-.11c-3.07-.17-6.08-.59-9.01-1.23-.74-1.94-1.84-3.72-3.2-5.26-3.11-3.52-7.64-5.76-12.7-5.82h-.23c-2.05,0-4.03.35-5.85,1.02-2.48-1.82-4.8-3.84-6.93-6.05-1.57-1.58-3.02-3.24-4.38-4.98-.87-1.11-1.7-2.25-2.48-3.42-3.46-5.12-6.14-10.83-7.87-16.94l24.44.06,4.74.02h.84c2.25,3.63,5.24,6.74,8.76,9.11,3.31,2.26,7.09,3.87,11.17,4.66,1.87.36,3.8.55,5.77.55,16.68,0,30.2-13.52,30.2-30.2s-13.52-30.2-30.2-30.2c-7.7,0-14.73,2.89-20.07,7.64h-26.1v-12.97l1.09-7.22,1.02-6.71,9.05-59.47h28.65v.02h56.07v28.33h-60.37l-2.75,17.99-.02.02c-12.41.32-22.97,7.94-27.51,18.78-.32.71-.59,1.44-.84,2.19.41-.43.82-.84,1.23-1.25,10.53-10.48,24.91-16.88,40.82-16.88,32.19,0,58.27,26.48,58.27,59.15h.03Z"/>
    <path class="cls-3" d="M194.93,112.56c0,30.09-22.13,54.94-50.77,58.68-1.4.18-2.81.32-4.22.39-1.09.06-2.19.09-3.28.09s-2.26-.03-3.37-.11c-3.07-.17-6.08-.59-9.01-1.23-.74-1.94-1.84-3.72-3.2-5.26-3.11-3.52-7.64-5.76-12.7-5.82h-.23c-2.05,0-4.03.35-5.85,1.02-2.48-1.82-4.8-3.84-6.93-6.05-1.57-1.58-3.02-3.24-4.38-4.98-.87-1.11-1.7-2.25-2.48-3.42-3.46-5.12-6.14-10.83-7.87-16.94l24.44.06,4.74.02h.84c2.25,3.63,5.24,6.74,8.76,9.11,3.31,2.26,7.09,3.87,11.17,4.66,1.87.36,3.8.55,5.77.55,16.68,0,30.2-13.52,30.2-30.2s-13.52-30.2-30.2-30.2c-7.7,0-14.73,2.89-20.07,7.64h-26.1v-12.97l1.09-7.22,1.02-6.71,9.05-59.47h28.65v.02h56.07v28.33h-60.37l-2.75,17.99-.02.02c-12.41.32-22.97,7.94-27.51,18.78-.32.71-.59,1.44-.84,2.19.41-.43.82-.84,1.23-1.25,10.53-10.48,24.91-16.88,40.82-16.88,32.19,0,58.27,26.48,58.27,59.15h.03Z"/>
    <path class="cls-1" d="M125.44,176.61c0,9.55-7.75,17.3-17.3,17.3s-17.3-7.75-17.3-17.3c0-5.86,2.92-11.04,7.38-14.17,1.25-.88,2.61-1.59,4.07-2.11,1.82-.67,3.8-1.02,5.85-1.02h.23c5.06.06,9.58,2.29,12.7,5.82,1.37,1.53,2.46,3.31,3.2,5.26.55,1.4.93,2.9,1.08,4.47v.02c.06.58.09,1.15.09,1.75v-.02Z"/>
    <path class="cls-5" d="M148.85,89.33c-7.46-3.63-15.68-3.39-22.48-.15-.05.02-.09.03-.14.06-2.07.99-4.01,2.28-5.77,3.8-.82.71-1.72,1.31-2.64,1.81-3.25,1.73-7.05,2.16-10.57.82l-2.26-.85-9.04-3.39c-.62-.23-1.2-.5-1.76-.84-1.32-.74-2.46-1.72-3.42-2.86-.2-.23-.38-.46-.56-.7-1.35-1.84-2.28-4.04-2.6-6.41-.26-1.81-.7-3.59-1.32-5.29-2.83-7.73-9.27-14.02-18.05-16.24-11.85-2.95-24.52,3.05-29.65,14.13-2.39,5.13-2.93,10.54-2.01,15.6,1.63,8.98,7.94,16.82,17.2,19.93,9.08,3.04,18.64.76,25.32-5.15,3.65-3.19,8.75-4.15,13.29-2.43l11,4.12c4.31,1.64,7.38,5.42,8.29,9.93.97,4.88,2.92,9.45,5.64,13.63.74,1.14,1.31,2.35,1.69,3.63.55,1.82.7,3.75.43,5.65-.18,1.2-.53,2.4-1.05,3.54l-.3.65-.49,1.08c-2.1,4.53-6.56,7.32-11.53,7.69-2.23.17-4.42.62-6.52,1.34h-.02c-1.44.5-2.83,1.11-4.16,1.85-1.25.68-2.43,1.47-3.54,2.37-2.95,2.34-5.42,5.38-7.17,8.99-6.33,13.14-.56,28.98,12.88,34.89,11.86,5.24,26.22.61,32.74-10.6,2.61-4.47,3.72-9.34,3.54-14.08-.06-1.43-.24-2.84-.53-4.24-.3-1.49-.74-2.93-1.31-4.34-.85-2.11-1.98-4.12-3.36-5.94-2.92-3.89-3.71-8.98-1.69-13.4.23-.5.49-.99.76-1.46.79-1.38,1.78-2.61,2.9-3.68,1.67-1.61,3.68-2.86,5.88-3.66,1.25-.46,2.57-.77,3.92-.93,4.13-.49,8.08-1.94,11.51-4.25.02,0,.03-.02.05-.03,3.92-2.66,7.15-6.41,9.16-11.06.38-.87.71-1.73,1-2.64,3.78-12.02-1.97-25.38-13.26-30.9h0ZM124.27,170.39c.55,1.4.93,2.9,1.08,4.47v.02c.06.58.09,1.15.09,1.75,0,9.55-7.75,17.3-17.3,17.3s-17.3-7.75-17.3-17.3c0-5.86,2.92-11.04,7.38-14.17,1.25-.88,2.61-1.59,4.07-2.11,1.82-.67,3.8-1.02,5.85-1.02h.23c5.06.06,9.58,2.29,12.7,5.82,1.37,1.53,2.46,3.31,3.2,5.26v-.02Z"/>
  </g>
  <g>
    <path class="cls-3" d="M3.21,280.4v-18.53h8.43v18.4c0,2.56,1.9,4.46,4.46,4.46s4.46-1.9,4.46-4.46v-18.4h8.43v18.53c0,7.1-5.56,12.44-12.88,12.44s-12.88-5.34-12.88-12.44h-.02Z"/>
    <path class="cls-3" d="M53.11,282.87h8.65c0,1.37,1.54,2.47,3.44,2.47,1.63,0,3.04-.79,3.04-1.81,0-3.4-14.69-2.03-14.69-12.35,0-5.91,4.94-9.84,11.38-9.84s11.51,4.1,11.51,9.57h-8.65c0-1.19-1.28-2.07-2.96-2.07-1.41,0-2.65.62-2.65,1.68,0,3.53,14.69,1.41,14.69,12.04,0,6.22-5.16,10.28-11.78,10.28s-12-4.37-12-9.97h.02Z"/>
    <path class="cls-3" d="M101.46,261.87h15.84c4.68,0,8.34,3.31,8.34,7.9,0,2.69-1.23,5.16-3.09,6.4,2.6,1.15,4.46,4.37,4.46,7.85,0,4.9-3.75,8.29-8.73,8.29h-16.81v-30.44h0ZM109.62,269.46v3.71h5.52c1.06,0,1.85-.79,1.85-1.85s-.79-1.85-1.85-1.85h-5.52ZM109.62,280.31v4.41h6.53c1.24,0,2.21-.97,2.21-2.21s-.97-2.21-2.21-2.21h-6.53Z"/>
    <path class="cls-3" d="M151,261.87h10.41l7.15,14.07,7.1-14.07h10.28v30.44h-8.43v-17.65l-6.66,13.24h-4.76l-6.66-13.24v17.65h-8.43v-30.44h0Z"/>
    <path class="cls-3" d="M211.93,261.87h20.6v7.94h-12.18v3.22h10.76v7.94h-10.76v3.4h12.4v7.94h-20.82v-30.44h0ZM222.51,252.96h9.88l-5.91,6.97h-8.29l4.32-6.97h0Z"/>
    <path class="cls-3" d="M265.26,277l-10.1-15.13h10.37l5.56,9,5.52-9h10.28l-10.1,15.13,10.28,15.31h-10.37l-5.74-9.18-5.69,9.18h-10.28l10.28-15.31h0Z"/>
    <path class="cls-3" d="M310.48,261.87h8.43v30.44h-8.43v-30.44Z"/>
    <path class="cls-3" d="M343.48,277.09c0-8.96,6.97-15.75,16.19-15.75,8.12,0,14.52,5.29,15.71,12.66h-8.96c-.93-2.74-3.57-4.54-6.75-4.54-4.28,0-7.54,3.26-7.54,7.63s3.27,7.63,7.54,7.63c3.18,0,5.83-1.81,6.75-4.54h8.96c-1.19,7.37-7.59,12.66-15.71,12.66-9.22,0-16.19-6.8-16.19-15.75Z"/>
    <path class="cls-3" d="M398.31,277.09c0-8.96,6.97-15.75,16.19-15.75s16.19,6.79,16.19,15.75-6.97,15.75-16.19,15.75-16.19-6.8-16.19-15.75ZM422.05,277.09c0-4.37-3.26-7.63-7.54-7.63s-7.54,3.26-7.54,7.63,3.27,7.63,7.54,7.63,7.54-3.27,7.54-7.63Z"/>
    <path class="cls-3" d="M484.34,287.5c0-9.13,12.71-11.87,12.71-16.01,0-1.06-.84-1.72-1.99-1.72s-1.99.66-1.99,1.94h-8.65c0-6,4.63-10.37,10.72-10.37s10.54,4.19,10.54,9.8c0,6.71-6.35,10.19-10.32,13.24h10.41v7.94h-21.44v-4.81h0Z"/>
    <path class="cls-3" d="M529.34,277.09c0-9.31,5.03-15.75,12.22-15.75s12.22,6.44,12.22,15.75-5.03,15.75-12.22,15.75-12.22-6.44-12.22-15.75ZM545.13,277.09c0-4.5-1.45-7.63-3.57-7.63s-3.57,3.13-3.57,7.63,1.5,7.63,3.57,7.63,3.57-3.13,3.57-7.63Z"/>
    <path class="cls-3" d="M577.16,287.5c0-9.13,12.71-11.87,12.71-16.01,0-1.06-.84-1.72-1.99-1.72s-1.99.66-1.99,1.94h-8.65c0-6,4.63-10.37,10.72-10.37s10.54,4.19,10.54,9.8c0,6.71-6.35,10.19-10.32,13.24h10.41v7.94h-21.44v-4.81h.01Z"/>
    <path class="cls-3" d="M621.81,279.34c0-9.35,6.49-17.65,19.1-17.65h.88v7.94h-.88c-4.98,0-7.81,1.45-9.31,3.62,1.19-.49,2.56-.79,4.06-.79,5.47,0,9.57,4.19,9.57,9.75,0,6.05-4.85,10.63-11.34,10.63-7.1,0-12.09-5.38-12.09-13.5h.01ZM636.59,282.43c0-1.32-1.23-2.3-2.87-2.3s-2.82.97-2.82,2.3,1.23,2.29,2.82,2.29,2.87-.97,2.87-2.29Z"/>
  </g>
  <rect class="cls-3" x="279.64" y="69.34" width="4.22" height="64.81"/>
  <g>
    <path class="cls-3" d="M231.23,134.9c-1.63.7-3.37,1.29-5.22,1.76s-3.68.71-5.47.71c-1.3,0-2.55-.16-3.73-.49s-2.21-.86-3.09-1.6c-.88-.74-1.57-1.71-2.08-2.9-.51-1.19-.76-2.67-.76-4.44v-14.87h-3.97v-8.82h3.97v-10.18h11.61v10.18h6.29v8.82h-6.29v10.73c0,1.07.22,1.82.67,2.25s1.06.65,1.83.65c.57,0,1.22-.09,1.96-.28s1.47-.44,2.2-.77l2.08,9.25h0Z"/>
    <path class="cls-3" d="M249.99,137.3c-2.89,0-5.43-.46-7.61-1.39-2.18-.92-4.01-2.16-5.5-3.7s-2.61-3.33-3.36-5.37-1.13-4.17-1.13-6.39.38-4.35,1.13-6.39c.75-2.03,1.87-3.82,3.36-5.37,1.49-1.54,3.32-2.78,5.5-3.7,2.18-.93,4.71-1.39,7.61-1.39s5.38.46,7.58,1.39c2.2.92,4.04,2.16,5.53,3.7,1.48,1.54,2.61,3.33,3.36,5.37s1.13,4.17,1.13,6.39-.38,4.35-1.13,6.39c-.75,2.03-1.87,3.82-3.36,5.37-1.49,1.54-3.33,2.78-5.53,3.7-2.2.93-4.73,1.39-7.58,1.39ZM244.31,120.46c0,2.18.53,3.89,1.59,5.12s2.42,1.85,4.09,1.85,3.03-.62,4.09-1.85c1.06-1.23,1.59-2.94,1.59-5.12s-.53-3.89-1.59-5.12-2.42-1.85-4.09-1.85-3.03.62-4.09,1.85c-1.06,1.23-1.59,2.94-1.59,5.12Z"/>
  </g>
</svg>